<?xml version="1.0" encoding="utf-8"?>
<!-- Generator: Adobe Illustrator 19.2.0, SVG Export Plug-In . SVG Version: 6.00 Build 0)  -->
<!DOCTYPE svg PUBLIC "-//W3C//DTD SVG 1.1//EN" "http://www.w3.org/Graphics/SVG/1.1/DTD/svg11.dtd">
<svg version="1.1" id="Layer_1" xmlns="http://www.w3.org/2000/svg" xmlns:xlink="http://www.w3.org/1999/xlink" x="0px" y="0px"
	 viewBox="0 0 1716 1682" style="enable-background:new 0 0 1716 1682;" xml:space="preserve">
<style type="text/css">
	.st0{clip-path:url(#SVGID_2_);fill:#FFFFFF;}
	.st1{clip-path:url(#SVGID_4_);fill:#2BADE9;}
</style>
<g>
	<g>
		<defs>
			<rect id="SVGID_1_" x="27.8" y="24" width="1654" height="1633"/>
		</defs>
		<clipPath id="SVGID_2_">
			<use xlink:href="#SVGID_1_"  style="overflow:visible;"/>
		</clipPath>
		<path class="st0" d="M1660.8,1250.2c-133.7,74.5-289.4,116.5-455.5,112.7c-488-9.5-874.8-404.9-865.2-882.4
			c3.8-162.3,51.6-312.3,133.7-440.2C213,186.3,34.4,458.5,27.8,774.6c-9.5,477.5,378.2,872.8,866.2,882.4
			C1216.7,1663.7,1501.3,1500.4,1660.8,1250.2"/>
	</g>
	<g>
		<defs>
			<rect id="SVGID_3_" x="27.8" y="24" width="1654" height="1633"/>
		</defs>
		<clipPath id="SVGID_4_">
			<use xlink:href="#SVGID_3_"  style="overflow:visible;"/>
		</clipPath>
		<path class="st1" d="M1196.6,1260.7c5.7,0,10.5,0,16.2,0c127,0,253.1-31.5,364.8-90.7c65.9-112.7,104.1-243.5,104.1-383.9
			c0-421.1-340-762.1-760.2-762.1c-132.7,0-256.9,34.4-364.8,93.6c-69.7,112.7-108.9,242.6-111.7,375.3
			C436.5,907.3,773.6,1252.1,1196.6,1260.7"/>
	</g>
</g>
</svg>
