<?xml version="1.0" encoding="utf-8"?>
<!-- Generator: Adobe Illustrator 19.2.0, SVG Export Plug-In . SVG Version: 6.00 Build 0)  -->
<!DOCTYPE svg PUBLIC "-//W3C//DTD SVG 1.1//EN" "http://www.w3.org/Graphics/SVG/1.1/DTD/svg11.dtd">
<svg version="1.1" id="Layer_1" xmlns="http://www.w3.org/2000/svg" xmlns:xlink="http://www.w3.org/1999/xlink" x="0px" y="0px"
	 viewBox="0 0 180 135" style="enable-background:new 0 0 180 135;" xml:space="preserve">
<style type="text/css">
	.st0{clip-path:url(#SVGID_2_);fill:#424242;}
</style>
<g>
	<defs>
		<rect id="SVGID_1_" x="13.1" y="13.5" width="152.9" height="107"/>
	</defs>
	<clipPath id="SVGID_2_">
		<use xlink:href="#SVGID_1_"  style="overflow:visible;"/>
	</clipPath>
	<path class="st0" d="M105.5,16.4L105.5,16.4c-3.9,3.9-3.9,10.2,0,14.1L132,57H23.1c-5.5,0-10,4.5-10,10c0,5.5,4.5,10,10,10h108.6
		l-26.5,26.5c-3.9,3.9-3.9,10.2,0,14.1v0c3.9,3.9,10.2,3.9,14.1,0L163,73.9c3.9-3.9,3.9-10.2,0-14.1l-43.3-43.3
		C115.8,12.5,109.4,12.5,105.5,16.4"/>
</g>
</svg>
